<svg xmlns="http://www.w3.org/2000/svg" viewBox="0 0 1294 1477" role="img" aria-label="مصاعد فرسان">
  <title>مصاعد فرسان</title>
  <path class="fursan-gold" fill="#D2B96F" fill-rule="evenodd" d="M1031 248C1027 248 1021 249 1019 249C1017 250 1018 250 1018 253C1018 256 1019 262 1019 267C1020 271 1020 274 1021 278C1021 283 1021 289 1022 292C1022 296 1022 296 1023 297C1024 299 1024 301 1026 303C1027 304 1031 305 1033 306C1036 307 1038 307 1041 308C1043 308 1046 297 1048 311C1050 324 1050 364 1050 390C1051 416 1052 443 1053 470C1053 496 1053 535 1054 547C1056 560 1060 546 1063 545C1065 544 1068 543 1071 541C1074 540 1079 537 1081 536C1084 535 1084 536 1086 535C1087 534 1090 532 1092 531C1094 530 1096 530 1097 529C1099 528 1102 540 1103 525C1105 510 1106 468 1106 439C1107 410 1108 381 1107 352C1107 323 1106 281 1105 266C1104 252 1103 265 1101 264C1099 264 1095 262 1092 262C1090 261 1087 260 1084 260C1081 259 1077 258 1075 257C1073 256 1072 256 1070 256C1068 256 1065 255 1064 254C1062 254 1061 254 1059 254C1058 253 1059 253 1056 253C1053 252 1047 251 1043 250C1039 250 1035 248 1031 248ZM11 265C9 273 7 297 6 313C4 329 4 343 4 361C3 379 3 409 3 422C3 435 3 414 3 437C3 460 3 521 3 559C3 597 4 629 4 667C4 705 4 764 4 786C4 808 4 793 4 799C5 805 5 817 5 823C5 829 6 831 6 836C6 841 6 849 7 852C7 856 7 855 7 857C7 858 7 861 8 863C8 865 8 864 8 866C9 868 9 873 9 875C10 878 10 880 11 883C11 885 11 889 12 891C12 893 12 893 12 894C12 895 12 896 13 897C13 898 13 898 13 899C14 900 14 901 14 902C14 903 14 903 14 904C14 905 14 906 15 907C15 908 15 907 15 909C16 911 16 912 17 916C18 921 20 928 22 934C24 941 26 950 28 956C30 963 32 970 34 974C35 978 35 979 36 981C36 982 37 983 37 984C38 986 39 988 40 991C41 994 42 997 44 1000C45 1003 46 1006 47 1009C48 1011 50 1014 51 1016C52 1018 51 1018 52 1021C54 1024 57 1030 59 1034C61 1038 62 1040 64 1044C66 1048 69 1054 70 1057C72 1059 72 1059 73 1060C73 1062 74 1063 75 1065C76 1067 77 1068 79 1071C81 1074 82 1077 86 1084C90 1090 95 1099 104 1110C112 1122 122 1137 136 1153C149 1169 169 1192 183 1208C198 1224 209 1237 222 1249C234 1261 247 1273 257 1282C266 1290 269 1292 279 1300C289 1308 304 1321 317 1331C330 1340 341 1348 357 1359C372 1370 396 1386 412 1396C428 1406 439 1413 451 1420C463 1427 475 1434 482 1438C490 1442 492 1443 496 1445C501 1448 504 1450 509 1452C514 1455 521 1458 526 1461C531 1464 533 1466 538 1468C543 1471 550 1474 554 1475C557 1476 556 1476 558 1475C560 1475 560 1475 564 1473C568 1471 575 1467 581 1464C587 1461 592 1458 599 1455C605 1451 613 1448 619 1444C625 1441 629 1438 634 1435C640 1432 646 1429 651 1426C656 1423 662 1419 665 1417C668 1415 669 1414 671 1413C673 1412 676 1410 680 1408C683 1406 686 1404 690 1401C694 1399 696 1398 701 1395C707 1391 711 1389 721 1382C732 1375 747 1364 764 1352C781 1340 803 1323 821 1308C839 1294 858 1279 872 1267C886 1254 895 1245 906 1235C916 1224 925 1214 935 1203C945 1192 956 1180 965 1169C974 1158 984 1146 992 1135C1000 1124 1006 1114 1014 1102C1022 1090 1031 1074 1037 1062C1044 1051 1049 1041 1053 1033C1057 1025 1060 1019 1062 1016C1064 1013 1062 1015 1063 1013C1064 1011 1066 1007 1067 1005C1068 1002 1068 999 1070 996C1071 993 1073 989 1074 986C1075 983 1076 982 1076 980C1077 977 1078 975 1078 973C1078 971 1078 970 1077 969C1077 968 1076 967 1075 967C1074 967 1072 968 1071 968C1070 968 1068 969 1067 969C1066 970 1064 970 1062 970C1061 971 1060 971 1057 972C1055 973 1052 973 1049 974C1046 975 1043 976 1039 977C1036 978 1032 979 1029 980C1026 981 1024 979 1021 982C1017 985 1013 991 1009 997C1004 1004 998 1014 993 1023C988 1031 985 1040 980 1048C975 1056 970 1064 964 1073C958 1081 954 1088 945 1100C936 1111 923 1128 912 1141C901 1154 889 1167 879 1179C868 1191 859 1200 848 1211C836 1222 822 1233 809 1245C795 1257 779 1269 765 1280C751 1291 733 1304 723 1312C712 1320 710 1321 701 1327C693 1333 684 1339 673 1345C662 1352 651 1359 638 1367C625 1374 607 1386 596 1392C585 1398 578 1402 572 1405C566 1408 562 1410 559 1411C556 1412 555 1411 551 1410C548 1409 542 1406 536 1403C530 1400 523 1396 515 1391C508 1387 498 1382 491 1378C485 1374 480 1371 475 1368C471 1365 467 1363 463 1361C459 1359 456 1356 452 1354C448 1351 446 1351 441 1347C436 1344 429 1340 421 1334C413 1328 404 1323 392 1314C381 1306 365 1295 352 1285C339 1275 327 1265 313 1254C300 1242 284 1227 270 1214C256 1201 243 1189 230 1175C217 1162 203 1146 192 1133C181 1120 173 1108 164 1097C156 1085 148 1072 142 1063C136 1054 132 1049 129 1044C126 1039 125 1036 124 1033C122 1031 123 1032 121 1030C120 1027 117 1022 115 1018C114 1014 112 1011 110 1008C109 1004 106 1000 105 997C104 994 104 995 103 992C102 988 99 983 97 978C94 972 91 964 89 958C87 952 84 945 82 941C81 937 80 934 79 932C79 930 79 931 79 928C78 926 77 921 76 918C75 914 74 910 73 907C72 904 71 899 71 897C70 895 70 895 70 894C70 893 70 893 70 892C69 891 70 890 69 889C69 888 69 887 68 885C68 884 68 882 68 880C67 879 67 878 67 876C66 875 66 874 66 873C66 872 66 871 66 870C65 869 66 868 65 867C65 866 65 866 65 864C64 863 64 859 64 857C64 855 63 854 63 852C63 849 63 845 62 843C62 840 62 869 62 838C61 808 61 720 61 661C61 602 61 544 62 485C63 427 64 339 65 310C66 280 68 308 70 308C71 307 72 307 74 307C75 306 76 306 77 306C78 306 78 306 79 306C80 305 81 306 82 305C83 305 83 305 84 305C85 304 86 305 87 304C88 304 89 304 91 303C92 303 94 303 96 303C97 302 98 302 100 302C101 301 102 302 103 301C104 301 104 301 105 301C106 300 107 300 108 300C109 300 109 300 110 300C111 299 112 300 113 299C114 299 115 299 117 298C118 298 120 298 122 298C123 297 124 297 126 297C127 296 128 297 129 296C130 296 131 296 133 295C134 295 136 295 138 295C139 294 141 294 143 293C145 293 147 293 149 293C150 292 152 292 154 291C156 291 158 291 160 291C161 290 162 290 164 290C165 289 166 290 167 289C168 289 169 289 170 289C171 288 172 288 173 288C174 288 175 288 176 288C177 287 178 288 179 287C181 287 182 287 184 286C185 286 188 286 190 286C191 285 193 285 194 285C196 284 198 284 199 284C200 284 200 284 201 284C202 283 204 284 206 283C207 283 207 283 208 283C209 282 211 282 213 282C214 282 214 282 215 282C216 281 218 282 220 281C221 281 221 281 222 281C223 280 226 280 227 280C228 280 228 280 229 280C230 279 232 280 234 279C235 279 235 279 236 279C238 278 240 278 241 278C242 278 242 278 243 278C244 277 246 278 248 277C249 277 249 277 250 277C251 276 253 276 255 276C256 276 256 276 257 276C259 275 261 276 262 275C263 275 264 275 265 275C266 274 268 274 270 274C271 274 271 274 272 274C274 273 275 274 277 273C278 273 278 273 279 273C281 272 283 272 284 272C285 272 286 272 287 272C288 271 290 272 292 271C293 271 289 271 294 271C300 270 315 269 325 268C335 267 344 266 354 265C363 264 377 265 383 261C390 257 388 248 391 242C393 236 396 229 397 223C398 217 398 208 397 205C396 202 394 205 390 205C387 205 380 206 376 206C372 206 371 207 367 207C363 207 356 208 352 208C348 208 349 209 345 209C341 209 333 210 329 210C325 211 323 211 319 212C315 212 309 212 306 213C304 213 305 213 303 213C301 214 296 214 294 214C292 214 290 215 288 215C286 215 282 215 280 216C278 216 278 216 277 216C276 216 273 216 272 217C271 217 271 217 269 217C267 218 261 218 258 218C254 219 252 219 248 220C245 220 240 220 238 221C235 221 235 221 233 222C232 222 229 222 227 222C226 223 224 223 223 223C221 224 220 223 219 224C217 224 217 224 214 225C212 225 207 226 203 226C200 226 198 227 194 228C189 228 182 229 177 230C172 231 169 232 165 232C160 233 154 234 151 234C148 235 149 235 147 235C146 236 145 236 144 236C143 236 143 236 142 236C141 236 140 236 139 237C138 237 137 237 135 238C134 238 132 238 130 238C129 239 128 239 126 239C125 240 124 240 123 240C122 240 122 240 121 240C120 240 119 240 118 241C117 241 117 241 116 241C115 242 114 242 113 242C112 242 112 242 111 242C110 242 109 242 108 243C107 243 108 243 106 243C104 244 97 245 93 246C89 247 85 248 80 249C74 250 65 251 60 252C56 253 54 254 51 255C48 255 43 256 41 256C39 257 39 257 38 257C37 258 35 258 34 258C32 258 30 259 28 260C26 260 22 261 19 262C16 262 13 256 11 265Z"/>
  <path class="fursan-navy" fill="#193854" fill-rule="evenodd" d="M356 952C355 952 353 952 351 954C349 956 346 959 343 962C341 966 337 972 335 976C333 980 332 984 331 988C330 991 329 988 329 995C328 1002 328 1018 328 1029C328 1039 328 1050 328 1060C329 1071 329 1088 330 1091C331 1095 333 1087 335 1083C337 1080 340 1074 342 1068C344 1063 347 1054 348 1049C350 1044 350 1042 351 1038C352 1034 351 1030 352 1027C352 1024 352 1024 352 1019C352 1015 352 1004 353 998C353 992 353 989 353 984C354 978 354 970 354 966C354 962 355 963 355 961C356 959 356 956 356 955C356 953 357 952 356 952ZM955 660C951 662 947 663 948 665C948 667 952 667 957 669C962 671 969 675 976 678C982 681 989 684 994 686C1000 688 1004 691 1007 693C1010 694 1010 694 1012 694C1013 695 1016 697 1018 697C1019 698 1020 698 1021 699C1023 699 1026 701 1029 702C1031 703 1033 703 1035 704C1037 705 1038 707 1041 705C1045 704 1052 698 1058 694C1063 690 1069 685 1075 682C1081 678 1088 673 1092 671C1095 670 1094 673 1094 674C1095 675 1095 674 1095 678C1096 682 1096 690 1097 696C1097 701 1098 706 1098 711C1099 717 1099 725 1100 729C1100 732 1099 730 1100 732C1101 733 1103 735 1105 738C1108 740 1111 742 1115 747C1120 751 1127 758 1132 763C1137 768 1142 774 1146 779C1150 783 1154 787 1156 789C1159 791 1160 801 1160 791C1161 782 1161 752 1161 732C1161 712 1161 692 1161 672C1161 652 1161 622 1160 612C1160 601 1160 609 1159 608C1159 606 1158 604 1157 601C1156 599 1154 597 1152 594C1151 592 1149 590 1146 588C1144 586 1140 584 1137 583C1133 581 1129 580 1125 580C1121 579 1119 577 1113 579C1107 580 1097 585 1090 588C1083 591 1079 593 1071 597C1062 601 1048 609 1041 613C1033 616 1032 617 1026 620C1020 623 1011 628 1005 631C999 635 997 636 991 640C985 643 975 648 969 651C963 655 959 657 955 660ZM728 1C719 1 712 1 704 1C695 1 681 2 676 2C671 2 675 3 673 3C670 4 665 4 662 4C659 5 658 5 655 6C652 6 647 6 644 7C641 8 639 8 636 9C634 9 630 10 629 11C629 12 629 12 632 14C635 15 642 17 647 18C652 19 659 20 663 22C667 23 671 25 673 26C674 27 674 27 673 28C671 29 665 29 662 29C658 29 656 29 650 29C645 29 635 29 630 29C624 29 623 29 619 29C616 29 610 29 608 30C605 30 606 30 605 30C604 30 603 30 602 31C601 31 601 31 600 31C599 31 598 31 597 32C596 32 595 32 594 33C593 33 593 33 590 33C588 34 583 36 579 37C575 39 571 41 567 43C563 45 557 47 555 49C553 50 555 51 556 51C557 51 558 51 561 51C564 51 571 50 574 50C578 50 580 50 584 50C587 50 593 50 596 51C598 51 598 51 599 51C601 51 604 51 606 52C608 52 609 52 611 52C613 52 616 52 618 53C620 53 621 53 622 54C623 54 625 55 626 56C627 56 626 57 625 58C624 59 622 60 620 61C618 61 614 62 611 63C607 64 604 64 601 65C598 66 595 67 593 67C591 68 590 68 588 68C587 69 586 69 585 70C584 70 583 70 581 70C579 71 577 72 573 73C569 74 564 76 559 78C555 80 551 81 546 83C541 85 535 88 530 91C524 93 520 95 514 99C508 103 499 108 494 112C488 116 484 120 480 123C476 127 473 130 472 132C470 134 470 135 470 136C470 136 470 137 472 136C474 136 478 134 480 133C483 132 485 131 489 130C492 129 497 127 500 127C503 126 504 126 507 125C510 125 513 124 516 123C518 122 519 122 521 122C523 122 526 121 527 120C529 120 530 120 532 120C533 119 535 119 536 118C538 118 539 118 541 118C542 117 543 117 544 117C545 118 546 118 546 119C545 121 544 123 542 125C539 128 535 131 531 134C527 137 523 140 518 142C513 145 508 147 503 149C498 151 495 153 491 155C487 158 482 160 479 163C476 166 472 170 470 174C468 177 466 180 464 183C463 186 461 190 459 193C458 196 458 198 456 201C455 204 453 209 452 212C451 215 449 218 448 220C447 222 446 223 446 224C446 225 449 225 451 226C452 226 455 226 457 227C459 227 462 227 463 228C463 229 461 231 459 234C457 237 454 241 451 246C448 251 443 259 440 265C437 271 434 276 432 280C431 284 429 289 430 290C430 291 433 288 436 286C438 284 442 280 446 277C449 275 454 271 457 269C459 267 461 266 463 266C464 266 465 266 465 268C464 270 462 273 459 277C457 281 454 285 451 290C448 295 444 303 442 307C439 312 439 315 438 318C437 321 436 322 436 325C435 328 435 332 435 335C435 338 435 340 435 343C435 346 436 351 436 354C436 356 436 355 436 356C437 358 437 361 437 364C438 366 438 367 439 369C439 372 440 377 441 380C441 383 442 384 442 387C443 390 444 395 444 398C444 400 444 401 444 403C444 406 444 409 444 411C444 413 444 413 444 414C443 415 444 417 443 418C443 419 443 420 442 422C442 423 441 425 440 428C439 430 438 433 436 435C435 437 433 440 432 442C432 444 431 446 432 447C433 447 435 447 438 446C440 445 443 443 447 441C450 438 454 434 457 432C459 429 461 427 463 425C465 424 467 421 468 421C469 422 469 426 469 428C470 430 469 432 469 435C469 438 468 443 468 447C467 450 466 453 465 457C464 461 462 467 461 471C460 476 458 478 457 482C455 485 452 490 450 494C448 498 446 501 443 506C439 511 434 519 430 524C426 529 421 533 417 537C413 541 408 545 407 547C405 549 407 550 409 550C411 550 415 548 418 548C422 547 425 546 429 545C433 543 438 540 443 538C447 536 451 534 455 532C460 529 466 526 469 525C472 524 472 523 473 523C474 523 475 523 475 525C474 527 471 530 468 533C465 536 462 540 456 545C450 550 442 556 433 562C425 568 413 574 404 579C395 584 386 589 378 593C370 597 363 600 357 602C350 605 346 606 341 608C335 610 329 612 325 614C320 616 317 617 314 617C311 618 312 618 309 618C307 619 302 620 299 621C295 622 292 623 288 624C284 625 278 626 274 627C270 628 267 628 265 629C262 630 259 631 257 631C254 631 253 631 251 632C250 632 249 632 247 633C245 633 242 633 240 633C238 634 237 634 235 634C233 635 232 634 230 635C229 635 229 635 228 635C226 635 224 636 223 636C222 636 223 636 221 636C218 637 213 637 210 638C206 638 204 639 200 639C196 640 191 641 186 642C182 643 178 644 174 645C170 647 165 648 161 649C157 651 154 652 151 653C148 654 146 656 143 657C140 658 136 659 134 660C131 661 128 678 127 663C125 647 125 598 124 565C124 533 124 500 124 467C125 435 125 385 126 369C127 352 129 367 130 367C131 366 133 365 134 365C135 365 137 365 138 364C139 364 139 364 141 364C142 363 144 363 146 363C148 363 150 362 152 362C154 361 157 361 159 361C160 360 161 360 163 360C164 359 165 360 166 359C168 359 169 359 170 358C172 358 174 358 176 358C177 357 178 357 180 357C181 356 182 356 183 356C184 356 185 356 186 356C187 355 188 356 189 355C191 355 192 355 194 354C195 354 198 354 200 354C202 353 204 353 206 352C208 352 210 352 213 352C215 351 216 351 219 350C223 350 229 349 233 349C237 348 240 347 245 347C250 346 257 345 261 345C264 344 265 344 267 343C270 343 274 343 276 342C277 342 276 342 278 342C280 341 284 341 287 341C290 341 291 340 294 340C297 340 301 340 304 339C306 339 306 339 307 339C309 338 312 338 313 338C315 338 315 338 317 338C318 337 321 338 322 337C323 337 322 337 325 337C328 336 335 336 339 335C344 335 347 334 352 334C356 333 362 333 365 332C367 332 366 331 367 330C368 329 369 327 370 326C371 324 372 322 372 321C372 319 373 317 373 315C373 314 373 313 372 312C372 311 371 310 370 310C368 309 367 310 365 310C363 310 360 310 358 310C356 311 355 311 353 311C351 312 349 311 348 312C347 312 346 312 345 312C344 312 341 312 339 313C338 313 337 313 336 313C334 314 331 313 330 314C328 314 328 314 326 314C325 314 322 314 321 315C319 315 319 315 317 315C316 316 313 315 312 316C310 316 310 316 308 316C307 316 304 316 303 317C301 317 301 317 299 317C298 318 295 317 294 318C292 318 292 318 290 318C289 318 286 318 285 319C283 319 283 319 281 319C280 320 277 319 276 320C274 320 274 320 272 320C270 321 267 321 264 321C262 321 261 322 259 322C257 322 253 322 252 323C250 323 250 323 249 323C248 324 247 323 246 324C244 324 244 324 241 325C239 325 234 326 230 326C227 326 224 327 221 328C217 328 211 329 208 329C204 330 203 330 200 331C197 332 193 332 190 332C188 333 186 333 185 334C183 334 181 334 179 334C178 335 177 335 175 335C174 336 173 335 172 336C171 336 171 336 170 336C169 336 168 336 167 337C166 337 166 337 165 337C164 338 163 337 162 338C161 338 160 338 158 339C157 339 155 339 153 339C152 340 152 340 149 340C147 341 143 341 139 342C136 343 133 344 129 344C125 345 119 346 115 347C112 348 110 323 108 349C106 376 103 455 102 507C101 560 101 612 101 665C101 718 101 798 102 826C102 853 102 828 102 830C102 832 102 835 103 837C103 839 103 839 103 840C103 841 103 844 104 845C104 846 104 847 104 848C104 849 104 852 105 853C105 854 105 855 105 856C106 857 106 860 106 861C106 863 106 863 106 865C106 866 106 868 107 870C107 871 107 871 107 872C108 874 107 876 108 877C108 878 108 878 108 879C109 881 109 883 109 885C109 887 109 886 110 889C111 892 112 898 113 903C114 908 115 912 117 916C118 920 119 926 120 930C121 933 121 934 122 936C123 938 123 939 124 941C124 943 125 945 126 947C126 948 127 949 127 950C128 952 128 953 129 955C129 957 131 960 132 962C133 965 134 968 135 971C137 974 139 978 140 981C141 984 140 984 142 986C143 989 145 993 147 997C149 1002 153 1008 156 1014C159 1020 162 1025 166 1032C170 1038 175 1047 180 1055C185 1063 189 1069 196 1078C202 1087 211 1099 219 1109C228 1120 237 1130 248 1142C260 1154 271 1166 287 1180C302 1195 321 1212 342 1228C363 1244 389 1263 411 1279C432 1294 454 1309 470 1319C486 1330 497 1336 504 1341C511 1345 509 1343 513 1346C517 1348 523 1352 529 1355C534 1358 539 1361 545 1363C550 1365 557 1368 560 1369C564 1369 564 1367 567 1366C570 1364 574 1362 578 1359C582 1357 585 1355 589 1353C593 1351 594 1350 599 1347C604 1344 610 1341 620 1335C630 1328 646 1318 661 1309C675 1299 691 1289 708 1277C724 1266 745 1250 759 1239C773 1228 782 1220 792 1211C803 1202 813 1194 821 1187C828 1180 833 1176 839 1169C846 1162 852 1157 861 1148C869 1139 881 1125 890 1115C899 1104 906 1093 914 1083C922 1073 930 1060 935 1052C940 1044 943 1040 946 1035C949 1030 950 1028 951 1025C953 1023 953 1023 954 1022C954 1020 956 1018 956 1016C957 1015 957 1015 959 1013C960 1010 963 1004 965 1000C967 996 968 993 970 990C972 986 975 980 976 978C977 976 976 976 977 975C978 974 978 973 979 971C980 969 980 967 981 965C982 963 983 962 984 959C985 956 986 952 988 948C989 944 990 940 991 937C993 933 994 928 995 925C996 922 996 921 996 919C997 917 998 916 998 913C999 910 1000 905 1001 901C1002 897 1003 894 1003 890C1004 886 1005 881 1005 878C1006 875 1006 875 1007 872C1007 869 1008 863 1008 859C1008 855 1008 853 1008 850C1007 847 1006 844 1005 842C1003 840 1001 841 999 840C998 840 996 840 994 840C992 840 991 839 990 840C989 841 988 844 988 845C987 847 987 848 987 851C986 853 986 858 986 860C986 863 985 864 985 867C985 869 985 872 984 874C984 876 984 876 983 877C983 879 983 881 982 883C982 885 982 886 981 888C980 891 980 895 979 898C978 901 977 903 977 906C976 909 975 913 975 915C974 917 974 917 973 918C973 919 973 920 973 922C972 923 971 925 971 926C971 928 971 929 970 931C969 933 968 936 968 938C967 940 967 941 966 944C965 947 963 951 962 954C961 957 959 960 958 962C957 965 958 966 955 970C953 975 949 982 945 991C940 999 935 1008 928 1020C921 1031 912 1047 903 1059C895 1072 888 1081 877 1094C866 1107 853 1122 839 1136C825 1151 809 1166 792 1181C776 1196 758 1211 741 1225C724 1238 711 1248 693 1260C675 1272 651 1288 633 1299C616 1310 600 1319 587 1327C574 1334 561 1341 555 1343C548 1346 552 1343 549 1341C546 1340 540 1336 536 1333C531 1331 525 1328 521 1325C516 1322 510 1318 507 1316C504 1314 503 1314 502 1313C500 1312 499 1311 497 1310C496 1309 495 1309 494 1308C492 1307 491 1306 489 1305C488 1304 487 1304 486 1303C484 1302 483 1301 481 1300C480 1299 479 1299 478 1298C476 1297 475 1296 473 1295C472 1294 471 1294 470 1293C468 1292 467 1291 465 1290C464 1289 464 1290 462 1288C459 1286 456 1284 448 1279C441 1274 431 1268 418 1258C405 1249 384 1233 370 1221C355 1210 340 1198 329 1189C319 1180 311 1173 307 1169C302 1165 304 1165 304 1163C303 1160 304 1158 304 1155C305 1153 305 1151 306 1148C306 1146 307 1143 308 1141C309 1139 309 1137 309 1135C309 1134 310 1132 310 1130C311 1128 310 1125 311 1123C311 1121 311 1122 311 1118C312 1113 312 1103 312 1096C312 1090 312 1086 312 1080C312 1074 312 1064 312 1060C312 1056 312 1059 312 1055C311 1052 311 1044 311 1040C311 1035 311 1032 311 1027C311 1023 311 1016 312 1013C312 1010 312 1011 312 1009C313 1008 313 1004 313 1002C313 1000 314 999 314 997C314 995 315 991 315 988C316 985 317 982 318 978C320 973 322 967 324 962C326 957 329 951 332 946C335 942 337 938 340 934C343 931 345 929 347 927C350 925 354 925 357 924C359 923 360 923 364 923C368 922 376 922 380 922C384 922 386 921 391 921C396 921 403 921 407 920C411 920 409 920 413 920C417 919 424 919 428 919C433 919 429 919 439 919C449 918 473 918 488 918C502 917 514 917 527 916C541 916 561 916 570 915C580 915 578 914 584 912C591 909 603 905 611 902C619 899 628 895 635 892C642 888 647 886 652 883C657 880 657 881 665 876C673 871 687 862 700 853C713 845 727 835 740 826C753 817 769 806 778 799C787 792 791 790 795 786C799 783 801 781 803 779C804 778 806 778 803 776C801 775 794 772 789 770C784 768 779 766 773 764C767 762 757 759 752 757C748 755 748 755 745 754C742 753 736 751 733 750C730 749 729 749 727 748C725 747 723 746 722 745C721 744 722 744 722 743C723 742 723 741 724 741C725 741 727 742 729 742C731 742 733 743 735 743C737 743 739 744 740 744C741 745 742 744 743 745C744 745 744 745 745 745C746 745 747 746 748 746C749 746 749 746 750 746C751 746 752 746 753 747C754 747 752 747 755 747C758 748 762 748 768 750C774 751 782 753 789 755C797 756 806 758 812 759C817 761 820 762 823 762C826 763 826 763 828 763C829 763 831 764 833 764C834 765 837 765 839 765C840 766 840 766 842 766C844 767 848 767 852 768C855 769 858 770 862 770C865 771 871 772 874 773C877 773 877 774 879 774C881 774 883 774 885 775C888 776 889 776 894 777C899 778 908 780 914 781C921 783 928 784 934 786C939 787 946 788 949 788C952 789 951 789 952 789C953 790 954 789 955 790C956 790 957 791 959 791C961 791 962 792 964 792C966 792 969 793 970 794C972 794 973 794 975 794C976 795 978 795 979 796C981 796 982 796 984 796C985 797 987 797 988 798C990 798 991 798 993 798C994 799 995 799 996 799C997 800 997 799 999 800C1001 800 1002 801 1005 801C1009 802 1015 803 1019 804C1023 805 1028 806 1032 807C1036 808 1040 808 1043 809C1047 810 1047 810 1051 812C1055 815 1063 821 1069 826C1074 830 1078 835 1083 839C1087 844 1092 849 1094 851C1096 853 1095 852 1096 853C1096 853 1097 854 1097 855C1098 855 1098 856 1098 857C1097 858 1097 858 1096 859C1095 859 1094 859 1094 858C1093 858 1092 857 1092 857C1091 856 1090 855 1090 855C1090 855 1089 854 1089 855C1088 855 1088 856 1086 856C1084 857 1078 858 1074 858C1070 858 1066 859 1062 859C1058 859 1052 858 1050 858C1047 858 1047 859 1045 859C1043 860 1041 861 1039 863C1037 864 1035 866 1034 868C1033 870 1032 872 1032 874C1031 876 1031 876 1031 878C1030 880 1030 884 1030 887C1030 889 1030 891 1030 894C1030 897 1031 903 1031 905C1031 908 1032 908 1032 911C1033 914 1033 917 1034 921C1035 924 1036 929 1037 933C1038 936 1039 940 1040 943C1041 946 1040 950 1043 950C1046 950 1053 946 1057 944C1062 942 1064 941 1072 937C1079 934 1093 927 1100 923C1108 919 1112 917 1117 914C1122 910 1132 908 1132 904C1133 900 1125 895 1121 890C1117 885 1113 880 1109 876C1105 871 1100 865 1098 862C1097 859 1097 859 1100 860C1103 862 1109 868 1114 873C1119 877 1124 882 1130 888C1136 894 1145 904 1150 909C1155 915 1158 918 1161 922C1164 926 1168 930 1170 933C1173 936 1173 938 1175 939C1177 941 1178 942 1180 943C1182 945 1186 946 1188 947C1190 948 1193 948 1195 949C1197 949 1199 949 1201 950C1203 950 1204 950 1205 951C1207 951 1209 952 1211 953C1212 954 1213 954 1214 956C1215 957 1217 960 1219 962C1220 965 1222 966 1222 969C1222 973 1220 980 1218 985C1215 990 1212 994 1209 999C1206 1003 1202 1009 1200 1013C1199 1017 1200 1020 1201 1022C1201 1025 1202 1027 1204 1030C1205 1032 1208 1035 1211 1038C1215 1040 1220 1043 1225 1046C1230 1049 1237 1052 1242 1054C1246 1057 1251 1058 1254 1060C1258 1061 1260 1062 1263 1062C1266 1063 1269 1063 1272 1064C1275 1065 1278 1066 1281 1066C1283 1067 1286 1072 1287 1067C1289 1063 1290 1048 1291 1038C1292 1028 1293 1018 1292 1007C1292 997 1294 984 1289 975C1285 965 1277 962 1265 949C1253 935 1234 913 1217 893C1199 873 1177 848 1162 830C1146 812 1132 796 1123 785C1113 774 1111 772 1107 767C1102 762 1103 761 1096 756C1089 751 1075 744 1065 738C1054 733 1045 728 1034 723C1024 717 1014 712 1003 706C992 701 980 695 969 689C958 683 946 676 936 670C926 664 913 657 908 654C904 651 909 652 910 652C911 652 913 653 915 653C916 654 919 654 921 655C923 655 925 656 927 655C928 654 929 650 930 648C931 646 931 643 932 641C932 638 932 634 933 632C933 630 933 631 933 630C933 628 933 626 934 625C934 624 934 624 934 623C934 622 934 619 935 618C935 617 935 617 935 616C935 614 936 612 936 610C936 609 936 609 936 607C936 604 937 599 937 596C937 593 937 591 937 588C937 585 937 581 936 578C936 576 936 575 935 573C934 570 933 566 931 562C930 558 928 553 924 548C921 542 916 535 912 530C908 525 904 521 900 517C895 512 890 508 886 504C883 500 880 498 877 495C874 491 870 486 868 483C865 479 864 477 862 474C861 472 859 470 858 466C856 463 855 459 853 455C852 452 851 450 849 444C846 438 843 428 840 420C838 412 836 406 833 399C831 391 829 383 826 376C823 370 820 366 817 360C814 354 810 349 806 342C803 335 798 326 795 320C792 314 791 311 790 307C788 303 787 299 787 296C786 293 786 292 786 291C786 289 786 287 787 287C788 287 789 288 790 290C792 292 793 293 796 297C799 300 803 306 808 311C813 316 818 321 826 328C833 334 845 342 854 349C863 355 871 360 878 365C885 369 892 373 896 376C899 379 899 381 900 383C900 385 900 386 900 388C900 390 899 393 899 395C899 397 898 398 898 401C897 403 897 406 897 408C896 410 896 410 896 412C895 415 895 419 895 423C895 426 895 430 896 435C897 439 898 445 900 449C902 453 905 456 909 458C913 460 918 462 923 463C929 464 934 464 941 463C948 462 957 460 963 457C969 455 975 452 979 450C984 448 988 448 990 443C992 438 992 426 992 418C992 410 992 402 992 394C992 386 992 373 991 367C991 362 991 367 991 363C990 359 990 350 989 344C989 338 988 335 988 329C987 323 986 312 986 308C986 303 986 306 985 300C984 294 984 281 983 272C982 264 982 258 981 251C980 243 980 231 979 227C979 222 979 225 979 223C978 222 978 219 978 218C978 216 978 216 978 214C978 213 978 210 977 209C977 207 977 207 977 205C976 204 976 201 976 200C976 198 976 198 976 196C976 195 975 192 975 190C975 188 975 189 975 186C974 183 974 178 974 174C974 170 973 168 974 165C974 162 975 158 976 156C977 155 977 156 979 157C981 157 984 158 987 159C990 160 994 161 997 162C1001 163 1004 164 1007 165C1010 165 1014 166 1017 166C1019 166 1021 166 1022 165C1023 165 1026 165 1025 164C1025 163 1022 161 1019 159C1016 157 1011 154 1007 150C1003 146 997 141 994 137C990 133 987 130 985 126C984 123 985 120 986 118C986 115 989 114 989 112C989 111 988 110 987 109C985 108 982 107 980 107C978 107 974 107 972 106C970 106 971 106 970 106C969 105 967 105 965 105C962 104 960 103 957 102C954 101 950 100 948 100C945 99 944 98 942 98C940 99 938 102 936 104C934 105 932 107 930 109C928 111 926 113 925 114C924 114 923 113 923 112C923 111 924 110 924 108C924 106 925 103 925 101C926 99 927 99 927 95C927 91 928 84 928 79C928 74 928 70 927 65C927 60 928 52 926 51C924 51 920 58 918 62C915 66 912 70 909 75C906 79 902 85 900 87C898 90 899 88 898 88C897 87 896 88 896 86C896 84 898 81 898 78C899 75 900 72 901 69C901 66 902 62 902 60C902 59 901 59 900 59C899 58 898 58 897 58C896 57 895 57 893 57C891 57 890 56 888 55C885 54 881 51 877 49C873 46 870 43 865 40C860 37 854 32 847 29C840 25 831 21 823 18C815 15 806 12 800 10C793 8 788 7 784 6C781 5 780 6 778 5C776 5 777 5 775 5C773 4 769 4 766 4C763 4 765 3 759 2C753 2 738 1 728 1ZM917 219C918 219 918 219 919 220C921 220 923 221 925 222C927 223 929 223 931 225C933 227 935 231 936 234C937 236 937 238 937 241C936 243 936 247 935 247C934 247 931 243 929 241C926 239 924 237 922 234C920 231 917 227 916 225C915 223 915 222 915 221C915 220 916 220 917 219Z"/>
</svg>
