<svg xmlns="http://www.w3.org/2000/svg" viewBox="0 0 1294 1477" role="img" aria-label="مصاعد فرسان">
  <title>مصاعد فرسان</title>
  <path fill="currentColor" fill-rule="evenodd" d="M1039 250C1032 252 1023 259 1020 265C1017 270 1021 278 1022 284C1023 290 1024 300 1026 304C1028 307 1031 305 1033 306C1036 307 1040 296 1042 310C1045 324 1048 363 1050 390C1051 416 1052 443 1053 470C1053 496 1051 535 1054 547C1057 559 1066 544 1071 541C1077 538 1084 549 1089 532C1095 515 1104 469 1106 439C1109 409 1108 381 1106 351C1104 322 1103 280 1097 264C1090 248 1077 258 1067 256C1058 254 1047 249 1039 250ZM2 460C0 525 2 588 2 654C3 721 4 819 5 858C7 896 9 873 12 884C14 896 17 912 21 927C25 942 30 961 36 977C41 992 46 1004 52 1018C58 1032 65 1046 73 1060C80 1073 88 1085 98 1101C108 1117 121 1135 136 1153C150 1171 166 1190 183 1208C201 1227 222 1248 242 1266C261 1284 282 1302 302 1317C321 1333 338 1346 357 1359C375 1372 393 1384 412 1396C431 1408 454 1420 472 1431C490 1442 505 1452 518 1459C531 1466 544 1471 551 1474C558 1476 554 1476 560 1474C567 1472 574 1470 589 1461C604 1453 625 1439 650 1424C674 1409 707 1389 737 1369C766 1348 802 1322 828 1302C853 1282 871 1266 889 1250C907 1233 921 1218 935 1203C949 1188 960 1174 972 1158C984 1143 996 1126 1007 1110C1018 1094 1029 1077 1037 1062C1046 1047 1053 1033 1059 1020C1064 1008 1070 996 1072 988C1075 980 1077 974 1074 972C1071 969 1062 971 1055 973C1048 974 1040 975 1033 979C1025 983 1017 988 1009 997C1001 1007 994 1021 985 1036C975 1051 964 1070 952 1088C940 1105 926 1125 912 1141C899 1157 887 1170 871 1186C855 1202 837 1219 818 1236C799 1252 778 1269 758 1285C737 1301 715 1317 693 1331C672 1346 647 1361 628 1372C610 1384 593 1392 581 1398C568 1404 559 1409 552 1409C544 1410 545 1408 536 1403C527 1398 512 1389 497 1380C482 1372 464 1361 447 1350C429 1339 410 1327 392 1314C374 1302 358 1289 340 1274C321 1259 301 1241 282 1225C264 1208 245 1191 230 1175C215 1160 203 1146 192 1133C181 1120 173 1109 164 1097C156 1084 148 1073 139 1060C131 1046 122 1030 115 1014C107 997 99 979 92 961C86 943 78 922 74 906C70 890 67 905 65 865C63 826 62 733 62 669C62 605 57 545 64 484C72 423 87 334 107 301C128 268 155 292 186 287C216 283 261 277 289 273C318 269 338 269 355 264C371 259 384 249 390 242C396 236 399 228 391 223C383 218 366 211 343 210C319 210 285 216 250 221C215 226 164 234 131 239C98 245 73 251 53 255C33 259 20 229 11 264C3 298 4 395 2 460ZM741 2C725 2 711 2 694 2C677 3 650 5 640 6C630 7 635 9 633 11C631 12 628 12 627 13C627 15 629 17 628 19C628 21 626 22 623 24C620 26 617 28 611 30C605 31 596 32 590 34C583 36 576 39 570 41C565 44 559 46 556 48C554 50 554 50 557 51C560 51 568 50 573 51C579 52 588 53 590 55C592 58 593 60 588 64C583 68 571 74 561 79C550 84 535 90 523 95C512 101 501 109 493 114C485 119 480 124 476 128C472 132 470 134 470 136C470 137 472 136 475 135C479 134 486 132 492 130C498 128 506 126 512 125C518 125 524 126 528 127C531 128 533 129 531 132C529 134 522 139 517 143C511 146 504 150 496 154C489 159 479 165 473 171C467 177 465 184 461 191C458 197 455 204 453 209C450 214 448 219 447 222C447 225 448 225 448 226C449 228 451 229 452 232C452 235 451 239 450 244C448 249 444 258 441 264C438 270 434 276 432 280C431 285 433 287 434 290C435 293 437 294 438 296C440 298 442 300 442 303C442 306 440 310 439 314C438 319 436 323 436 330C436 337 437 348 438 357C439 366 440 378 441 387C442 396 443 405 443 412C443 419 440 424 439 429C437 433 434 437 434 440C433 442 433 445 434 445C436 446 438 444 442 443C445 442 451 439 454 439C457 438 460 439 462 441C464 444 465 449 464 455C463 462 459 472 456 480C453 488 449 496 445 503C440 510 435 518 430 524C425 529 421 533 417 537C413 541 408 545 406 547C405 549 407 550 408 550C410 550 413 549 417 548C420 548 426 546 429 546C432 546 435 547 435 549C435 552 433 556 428 561C423 566 415 572 405 579C394 585 380 592 365 598C349 604 332 610 314 615C295 621 274 625 255 629C236 633 218 637 203 640C188 643 174 646 164 649C154 652 148 670 142 655C136 641 132 594 129 562C127 531 121 498 126 465C131 431 146 380 160 361C174 343 190 355 212 352C234 349 270 344 291 341C313 338 326 336 340 333C353 330 365 326 370 323C376 320 372 318 372 316C372 313 371 311 370 310C368 309 371 309 365 310C358 310 345 312 331 313C317 315 303 316 281 320C258 323 220 328 196 332C173 336 156 314 140 343C124 372 108 450 102 507C96 565 102 625 104 688C106 751 108 843 112 885C115 928 120 924 126 942C131 959 139 976 146 992C154 1008 162 1023 171 1039C181 1055 193 1072 205 1088C217 1104 229 1119 243 1135C256 1150 270 1165 287 1180C303 1196 321 1212 342 1228C363 1244 387 1262 411 1279C435 1295 465 1315 485 1328C506 1342 518 1354 535 1358C553 1362 570 1359 590 1351C609 1344 630 1327 653 1311C677 1296 709 1274 732 1258C755 1242 773 1227 791 1213C808 1198 823 1184 837 1170C852 1155 866 1140 878 1126C891 1112 903 1098 914 1083C925 1068 935 1051 944 1036C952 1022 959 1009 966 995C973 980 981 965 986 951C991 938 994 925 997 913C1000 900 1003 887 1005 876C1007 866 1008 856 1008 850C1007 844 1004 843 1001 841C999 840 996 839 994 841C991 843 989 846 987 851C985 857 985 866 983 875C981 885 978 899 975 910C972 921 970 932 965 944C960 956 954 970 948 982C942 995 937 1005 928 1020C920 1034 909 1051 896 1068C883 1085 867 1103 850 1122C834 1140 816 1159 795 1178C775 1197 750 1217 726 1235C701 1253 673 1272 650 1287C627 1302 603 1316 587 1325C570 1334 565 1342 552 1341C538 1339 524 1326 506 1315C488 1304 469 1292 446 1276C423 1260 387 1235 367 1219C347 1203 337 1193 327 1182C316 1170 309 1160 306 1152C303 1144 308 1141 309 1133C310 1125 311 1113 312 1103C312 1094 312 1086 312 1076C312 1066 312 1053 312 1044C312 1034 311 1027 312 1020C313 1013 316 1000 318 1001C320 1002 321 1016 323 1026C325 1035 327 1049 329 1059C331 1068 332 1082 334 1083C336 1085 339 1076 342 1069C344 1062 347 1052 349 1042C351 1032 351 1020 352 1010C353 999 354 988 354 979C355 970 355 963 356 958C356 954 357 952 356 952C355 951 354 952 352 953C350 954 346 956 343 957C341 957 337 957 336 956C334 954 334 950 335 946C336 943 335 938 341 934C347 931 352 928 370 925C388 922 422 921 449 919C476 917 506 917 533 914C561 910 592 907 616 899C640 891 654 879 675 866C696 854 723 836 742 824C761 811 777 799 788 791C798 783 801 779 803 776C805 773 801 775 800 774C798 772 796 770 796 768C796 766 796 764 798 763C799 761 800 759 807 760C814 760 828 763 839 765C850 768 860 770 873 773C885 776 902 779 914 781C927 784 935 786 948 789C962 792 982 796 996 799C1010 802 1023 804 1034 808C1046 812 1058 818 1066 823C1073 828 1074 833 1078 838C1081 843 1087 849 1086 853C1085 856 1077 856 1072 858C1067 859 1061 859 1056 860C1050 860 1043 861 1039 863C1035 864 1035 867 1034 870C1032 873 1031 876 1031 883C1031 890 1032 902 1034 910C1035 918 1033 929 1039 933C1046 937 1062 937 1074 935C1086 933 1097 924 1109 921C1121 917 1139 911 1148 912C1157 913 1158 920 1163 924C1167 929 1172 935 1177 938C1181 942 1186 945 1191 947C1195 949 1198 948 1202 950C1205 952 1210 954 1213 956C1216 959 1218 962 1218 967C1219 971 1217 979 1216 984C1214 990 1211 995 1208 1000C1205 1005 1202 1010 1200 1013C1199 1017 1199 1019 1201 1022C1202 1026 1204 1029 1208 1033C1212 1036 1218 1041 1224 1045C1230 1048 1239 1053 1247 1056C1255 1059 1264 1067 1271 1063C1277 1060 1283 1045 1286 1035C1290 1026 1301 1027 1291 1005C1281 982 1248 930 1226 901C1203 871 1183 853 1157 826C1131 799 1089 758 1071 741C1052 724 1054 730 1048 725C1042 720 1032 715 1033 710C1033 705 1044 700 1051 696C1057 692 1066 688 1072 685C1079 682 1087 676 1091 677C1095 678 1095 688 1096 694C1098 700 1097 707 1099 714C1100 721 1102 730 1105 735C1108 741 1110 742 1115 747C1120 752 1129 760 1134 766C1140 771 1145 787 1150 781C1154 776 1158 751 1160 733C1162 714 1160 691 1160 669C1160 648 1159 616 1157 603C1156 591 1153 596 1150 593C1146 590 1143 587 1138 585C1134 582 1132 578 1123 580C1114 581 1097 588 1082 594C1066 601 1048 610 1031 619C1013 627 990 640 977 647C965 654 961 658 955 661C949 665 945 666 942 668C939 669 938 670 936 669C934 668 931 668 930 664C930 659 931 650 932 641C932 633 934 622 934 613C935 603 936 591 936 583C935 575 934 570 932 564C930 558 928 553 924 548C921 542 917 536 912 530C907 524 901 519 895 512C889 506 882 499 876 491C870 484 865 477 860 466C854 455 849 440 843 426C837 412 829 394 823 380C817 365 811 350 807 340C803 330 801 323 802 320C802 316 807 318 811 320C815 321 818 323 825 328C832 333 846 342 855 349C864 357 872 364 879 371C886 379 895 389 898 396C901 404 897 410 896 417C896 423 896 429 896 435C897 440 898 445 900 449C902 453 905 456 909 458C913 460 918 462 923 463C929 464 934 464 941 463C948 462 956 460 963 457C970 455 975 455 980 449C985 442 989 433 991 419C992 406 991 388 990 368C989 348 987 320 985 298C984 276 981 253 979 235C978 217 976 202 976 191C976 179 976 172 979 167C981 162 986 162 991 162C996 161 1004 163 1009 164C1014 164 1020 166 1022 165C1024 165 1023 163 1020 160C1018 157 1011 153 1006 148C1002 143 995 137 992 132C989 127 988 122 987 119C987 116 990 114 990 112C990 110 989 110 986 109C984 108 979 107 975 106C970 105 964 104 959 103C953 102 948 103 943 99C939 96 936 88 934 83C931 78 929 72 927 67C926 62 927 53 926 51C925 49 924 53 922 54C920 56 917 58 915 59C912 60 910 61 907 61C904 61 901 60 898 59C895 58 894 57 890 55C886 53 879 50 873 46C867 42 862 38 854 34C846 30 835 23 827 20C819 16 812 14 806 12C800 10 803 7 792 5C781 4 757 3 741 2Z"/>
</svg>
